HIERARCHY
ROOT Hips
{
  OFFSET 36.5706 95.6497 -227.79
  CHANNELS 6 Xposition Yposition Zposition Zrotation Xrotation Yrotation
  JOINT ToSpine
  {
    OFFSET -2.69724 7.43032 -0.144315
    CHANNELS 3 Zrotation Xrotation Yrotation
    JOINT Spine
    {
      OFFSET -0.0310711 10.7595 1.96963
      CHANNELS 3 Zrotation Xrotation Yrotation
      JOINT Spine1
      {
        OFFSET 13.1342 3.43533 0.764692
        CHANNELS 3 Zrotation Xrotation Yrotation
        JOINT Neck
        {
          OFFSET 29.8703 7.82586 -0.130764
          CHANNELS 3 Zrotation Xrotation Yrotation
          JOINT Head
          {
            OFFSET 9.52751 0.295786 -0.907742
            CHANNELS 3 Zrotation Xrotation Yrotation
            End Site
            {
              OFFSET 16.4037 0.713936 2.7358
            }
          }
        }
        JOINT LeftShoulder
        {
          OFFSET 27.5574 4.95586 2.47156
          CHANNELS 3 Zrotation Xrotation Yrotation
          JOINT LeftArm
          {
            OFFSET 1.20734 -0.998971 20.1238
            CHANNELS 3 Zrotation Xrotation Yrotation
            JOINT LeftForeArm
            {
              OFFSET 26.8049 -0.0536703 -0.155908
              CHANNELS 3 Zrotation Xrotation Yrotation
              JOINT LeftHand
              {
                OFFSET 26.6817 0 0.320147
                CHANNELS 3 Zrotation Xrotation Yrotation
                End Site
                {
                  OFFSET 18.6119 0 0.382219
                }
              }
            }
          }
        }
        JOINT RightShoulder
        {
          OFFSET 27.5927 4.71444 -2.65209
          CHANNELS 3 Zrotation Xrotation Yrotation
          JOINT RightArm
          {
            OFFSET 2.83739 -1.17114 -18.7564
            CHANNELS 3 Zrotation Xrotation Yrotation
            JOINT RightForeArm
            {
              OFFSET 28.839 -0.0548439 1.22491
              CHANNELS 3 Zrotation Xrotation Yrotation
              JOINT RightHand
              {
                OFFSET 26.5114 0 -0.101894
                CHANNELS 3 Zrotation Xrotation Yrotation
                End Site
                {
                  OFFSET 18.2168 0 0
                }
              }
            }
          }
        }
      }
    }
  }
  JOINT LeftUpLeg
  {
    OFFSET -4.76168 -1.9167 -10.2353
    CHANNELS 3 Zrotation Xrotation Yrotation
    JOINT LeftLeg
    {
      OFFSET 2.55951 -42.0585 -8.02213
      CHANNELS 3 Zrotation Xrotation Yrotation
      JOINT LeftFoot
      {
        OFFSET 3.16357 -42.5282 -3.95426
        CHANNELS 3 Zrotation Xrotation Yrotation
        JOINT LeftToeBase
        {
          OFFSET 0.346054 -6.02161 12.8035
          CHANNELS 3 Zrotation Xrotation Yrotation
          End Site
          {
            OFFSET 0.134235 -1.35082 5.13018
          }
        }
      }
    }
  }
  JOINT RightUpLeg
  {
    OFFSET -4.94151 -1.41743 10.6446
    CHANNELS 3 Zrotation Xrotation Yrotation
    JOINT RightLeg
    {
      OFFSET -2.56294 -42.0364 -7.94377
      CHANNELS 3 Zrotation Xrotation Yrotation
      JOINT RightFoot
      {
        OFFSET -3.0952 -42.555 -4.02241
        CHANNELS 3 Zrotation Xrotation Yrotation
        JOINT RightToeBase
        {
          OFFSET -0.0828122 -6.13587 12.8035
          CHANNELS 3 Zrotation Xrotation Yrotation
          End Site
          {
            OFFSET -0.131328 -1.35082 5.13018
          }
        }
      }
    }
  }
}
MOTION
Frames:	17
Frame Time:	0.0333333
34.4594 95.3466 59.2187 69.3452 -33.6678 -12.1016 -70.1915 0 88.8779 76.8449 68.5063 10.3574 8.33693 17.9107 2.28749 -140.877 36.5764 161.748 -138.611 76.42 174.926 -0.220813 -15.9218 -32.6398 -80.8487 46.5846 -70.8328 8.58289 13.8599 -31.8736 0.420957 0.000575435 0.35866 -1.8624 5.84967 46.3138 -82.4965 -29.2606 76.6418 10.206 -10.8037 43.9383 0.58676 0.000331166 0.0646654 -50.3391 14.7318 108.148 -1.10431 50.9267 10.9818 -0.0364007 -1.3787 -0.195448 1.12183 -5.03701 8.11445 -43.1866 -2.7709 79.575 0.741094 37.0378 -6.22931 -7.56067 -6.47088 1.2052 1.17053 -8.60203 -1.57542 
34.6418 95.533 60.4765 70.0446 -30.8707 -10.8477 -70.1915 0 88.8779 76.5184 68.7467 10.8386 8.50061 18.1592 2.32225 -140.159 36.7285 161.219 -136.374 76.4701 172.974 -0.182593 -15.7971 -32.4453 -81.646 46.0571 -69.6149 8.92087 14.1018 -32.4438 0.420957 0.000575435 0.35866 -1.91245 5.99356 46.3642 -86.3901 -27.7017 74.5403 10.3116 -10.5059 45.0284 0.58676 0.000331166 0.0646654 -51.062 15.3085 108.915 -0.91043 48.6704 10.8891 0.126951 0.0842187 -0.099689 2.70944 -7.50158 6.30418 -44.3804 -2.88505 78.7142 0.582575 36.8178 -7.31254 -7.1582 -7.3149 1.18777 1.02447 -8.5964 0.0892186 
34.6777 95.7093 61.5363 70.3614 -27.9091 -9.81304 -70.1915 0 88.8779 75.2099 68.931 11.8731 8.71454 18.2838 2.85761 -139.757 36.2935 160.917 -134.455 75.8527 171.513 -0.0850442 -15.4161 -32.1639 -82.4508 45.5089 -68.8371 9.2328 14.135 -33.2939 0.420957 0.000575435 0.35866 -2.02164 6.15244 47.2247 -89.5818 -25.3045 73.0253 10.9449 -10.9833 45.5004 0.58676 0.000331166 0.0646654 -51.0424 15.3953 107.958 -0.950964 47.0204 9.85604 0.591301 0.187025 -0.152476 2.24358 -6.62322 6.27396 -45.1105 -2.89899 78.4932 0.535357 36.5548 -7.55805 -7.43042 -7.54203 1.21015 1.09302 -9.37024 0.440193 
34.6851 95.7229 62.3442 70.4554 -24.6429 -8.7569 -70.1915 0 88.8779 74.3739 68.8188 12.6562 8.71645 18.1622 3.18088 -139.594 34.8754 161.117 -133.722 74.2076 171.361 -0.0230919 -15.1466 -32.0975 -84.4736 44.6833 -67.1089 9.81443 14.4116 -34.4309 0.420957 0.000575435 0.35866 -2.00411 6.05009 47.4951 -91.0093 -23.72 73.0727 12.0183 -12.3232 44.9769 0.58676 0.000331166 0.0646654 -50.2294 15.0534 105.576 -1.19457 46.2037 7.96686 0.672462 0.329732 -0.152765 2.26511 -6.8863 7.18583 -45.3288 -2.95518 78.6311 0.492349 36.9403 -7.89188 -6.82714 -8.78827 1.19314 0.955863 -8.5893 0.75758 
34.7502 95.6266 63.0427 70.9213 -21.6079 -7.61504 -70.1915 0 88.8779 75.1766 68.9833 12.0218 8.35808 18.2964 3.20568 -139.364 32.5517 161.363 -133.693 71.6699 171.878 0.018451 -14.9833 -31.9591 -85.3882 43.9646 -66.2967 8.9485 12.8237 -35.013 0.420957 0.000575435 0.35866 -1.84292 5.60023 47.3695 -90.9597 -23.0905 73.7224 10.7359 -11.3878 43.9174 0.58676 0.000331166 0.0646654 -49.6955 14.7526 103.241 -1.47159 45.8757 5.99772 0.479892 0.14379 -0.141182 2.28426 -7.04621 7.71095 -45.8544 -2.98403 78.8206 0.428785 37.5557 -8.62015 -6.75022 -9.36612 1.20047 1.10492 -10.1172 1.86318 
34.7596 95.5784 63.6029 70.9136 -18.7602 -6.81798 -70.1915 0 88.8779 74.8435 69.086 12.6559 8.31659 18.4532 3.19618 -140.619 29.8563 162.873 -134.369 68.3805 171.831 0.0364577 -14.8902 -32.0078 -86.8873 43.3153 -65.3554 9.42759 13.0802 -35.9111 0.420957 0.000575435 0.35866 -1.83583 5.63144 47.0712 -90.5024 -22.7125 74.132 10.6547 -11.6078 43.1557 0.58676 0.000331166 0.0646654 -48.7918 14.4589 101.279 -1.65333 45.5489 4.58446 0.458612 -0.0857528 -0.155428 2.16782 -6.68187 7.07658 -45.9306 -2.59971 79.7329 0.611848 37.7993 -7.38257 -6.61293 -9.30764 1.19322 1.67745 -10.8711 -5.4601 
34.7551 95.5499 64.0236 70.9325 -16.0515 -6.06937 -70.1915 0 88.8779 74.7148 69.2565 13.1165 8.38013 18.6394 3.24034 -141.451 26.6602 165.985 -137.639 65.1408 175.75 0.092312 -14.6332 -32.0025 -88.5365 42.9364 -64.9817 10.0867 13.6246 -36.6839 0.420957 0.000575435 0.35866 -1.86466 5.79422 46.6518 -89.7018 -22.4055 74.5782 10.7027 -11.9074 42.5651 0.58676 0.000331166 0.0646654 -47.9908 14.1031 99.6627 -1.87664 45.1421 2.80738 0.559563 0.224217 -0.145605 2.38457 -7.21769 7.67728 -46.0244 -2.86364 79.2327 0.547674 38.0191 -7.96273 -6.63267 -10.3166 1.21577 1.6629 -9.659 -6.16403 
34.6334 95.5672 64.363 70.6353 -13.4648 -5.63404 -70.1915 0 88.8779 74.7643 69.5591 13.4451 7.97447 19.022 3.03923 -142.461 22.3989 169.148 -140.25 60.6367 178.22 0.0350869 -14.8318 -32.3268 -90.152 42.2931 -64.2304 10.1981 13.4804 -37.2803 0.420957 0.000575435 0.35866 -1.85894 5.7193 46.9681 -88.6285 -21.7178 75.0122 10.9338 -12.4698 41.8884 0.58676 0.000331166 0.0646654 -47.03 13.7132 98.7609 -1.99528 44.415 1.47624 0.715255 0.415009 -0.152358 2.58582 -7.48105 7.23152 -45.8016 -3.55064 77.8452 0.457977 38.0751 -8.60241 -7.05542 -9.59965 1.22167 1.89073 -12.0217 -7.36112 
34.5592 95.6034 64.6802 70.9961 -10.9214 -5.24209 -70.1915 0 88.8779 76.0532 70.044 11.6306 7.72718 19.2879 3.476 -143.318 17.6584 172.188 -141.649 55.477 179.412 0.0994554 -14.5325 -32.3554 -90.9707 42.2396 -64.3722 10.4487 13.5721 -37.7786 0.420957 0.000575435 0.35866 -1.84034 5.7215 46.6495 -87.3678 -21.7003 75.4772 10.9836 -12.4906 41.966 0.58676 0.000331166 0.0646654 -46.9663 13.2057 98.3905 -2.09407 43.3942 -0.00643342 0.749276 0.671707 -0.13885 2.39936 -7.08078 7.01749 -46.1969 -4.71455 76.3226 0.282574 38.2942 -9.94944 -6.40132 -11.6299 1.23401 1.47398 -8.61912 -5.06828 
34.4556 95.7183 64.9524 70.9387 -8.69474 -5.00537 -70.1915 0 88.8779 77.0826 70.4639 10.8087 7.44966 19.7424 2.95353 -142.955 12.9956 175.28 -143.05 50.7469 -177.857 0.159621 -14.2642 -32.3226 -91.7815 42.0904 -64.4868 10.9508 13.9376 -38.3793 0.420957 0.000575435 0.35866 -1.84424 5.72659 46.6866 -86.8328 -21.8116 75.7175 12.8153 -14.5213 42.2443 0.58676 0.000331166 0.0646654 -46.6077 12.915 98.4431 -2.26453 42.4253 -1.91622 0.528446 0.0970735 -0.151249 1.42852 -5.55714 7.9596 -46.2554 -5.36282 75.848 0.188572 38.2642 -10.5535 -6.65223 -11.2744 1.23456 1.49559 -9.40467 -4.47109 
34.3128 95.7154 65.1105 70.7832 -6.59931 -4.52676 -70.1915 0 88.8779 77.6731 70.6602 10.9153 7.79148 20.1232 2.12807 -143.277 8.82348 178.837 -144.386 46.3693 -176.029 0.203504 -14.095 -32.1272 -92.3394 42.2125 -64.495 11.278 13.935 -39.2233 0.420957 0.000575435 0.35866 -1.87505 5.83314 46.6071 -86.093 -22.1903 76.1464 13.2064 -14.7657 42.6626 0.58676 0.000331166 0.0646654 -46.2004 12.6804 97.9541 -2.25363 41.3616 -2.64582 0.748854 1.17833 -0.101916 2.42343 -6.78523 5.53928 -45.9079 -5.34755 77.136 0.428323 39.1079 -9.1632 -6.3499 -10.9817 1.21935 1.84104 -9.79713 -8.5355 
34.2147 95.6365 65.2465 70.6052 -4.01221 -3.76093 -70.1915 0 88.8779 78.3619 70.7404 10.4736 7.86918 20.1653 2.10648 -143.319 4.70674 -178.049 -145.126 41.9833 -174.864 0.22221 -13.9523 -32.4765 -91.8093 42.2027 -65.0689 11.3062 13.6577 -39.8499 0.420957 0.000575435 0.35866 -1.88199 5.93134 46.1983 -86.0503 -22.8625 76.1096 13.5342 -14.6275 43.6484 0.58676 0.000331166 0.0646654 -45.2691 12.0336 96.3225 -2.38385 40.9356 -4.07557 0.519911 1.3787 -0.0557878 2.0409 -5.91275 4.98564 -46.0697 -5.45355 78.2802 0.490356 39.1747 -8.78356 -7.08965 -10.1025 1.22822 1.85506 -11.8447 -7.10228 
34.0471 95.5973 65.3938 70.3546 -1.38015 -2.78794 -70.1915 0 88.8779 79.7607 70.7689 9.85281 7.87726 20.2982 1.30722 -142.983 1.27195 -175.634 -145.606 38.3809 -173.663 0.288071 -13.6594 -32.425 -90.9114 42.3247 -66.0857 11.1953 13.3824 -40.1299 0.420957 0.000575435 0.35866 -1.84951 5.79479 46.402 -86.3336 -23.2692 76.0599 14.0417 -14.7689 44.4673 0.58676 0.000331166 0.0646654 -44.2034 11.7351 95.0563 -2.57115 40.5707 -5.94625 0.506251 1.27625 -0.0613002 2.70942 -7.48401 6.26886 -46.4456 -4.93313 80.3508 0.541284 38.8789 -8.31978 -7.18781 -10.4913 1.24123 1.82818 -12.837 -5.3336 
33.7983 95.5329 65.4543 69.8321 1.24852 -1.79675 -70.1915 0 88.8779 80.595 70.7705 9.49061 7.79039 20.3067 1.1453 -142.982 -1.04738 -172.996 -146.481 35.9916 -172.221 0.278094 -13.6708 -32.654 -90.5599 42.4736 -66.5169 11.0302 13.1321 -40.2244 0.420957 0.000575435 0.35866 -1.8823 5.89869 46.3763 -85.6429 -23.6295 76.4929 13.7287 -14.3168 44.6578 0.58676 0.000331166 0.0646654 -42.7187 11.3357 93.9825 -2.6855 40.3831 -7.15838 0.762362 1.20997 -0.101999 2.44359 -6.85357 5.67872 -46.4401 -4.29206 82.7308 0.787941 38.8942 -6.57048 -6.0487 -10.8451 1.20696 2.01859 -13.0186 -8.26943 
33.567 95.4756 65.5349 69.3434 3.72847 -0.938926 -70.1915 0 88.8779 80.5736 70.8611 9.53475 7.88756 20.3977 1.08411 -142.804 -2.45433 -171.93 -146.484 34.4058 -172.178 0.239768 -13.8204 -32.8153 -90.2536 42.6186 -67.249 11.1033 13.5352 -39.5849 0.420957 0.000575435 0.35866 -1.90511 5.98939 46.2619 -85.3284 -24.1677 77.0577 13.853 -14.4178 44.7216 0.58676 0.000331166 0.0646654 -41.2459 10.8727 93.2461 -2.70872 40.3316 -7.42676 0.309571 0.97053 -0.0567507 2.2507 -5.97409 3.71675 -46.6611 -3.76823 84.4013 1.08739 38.5915 -4.34559 -7.52792 -10.2637 1.25029 2.28999 -14.5768 -14.9633 
33.1886 95.4307 65.5887 68.7547 5.9012 -0.261633 -70.1915 0 88.8779 81.4554 71.1821 8.28463 7.48929 20.5884 1.46465 -142.833 -3.11694 -171.143 -146.317 33.5927 -172.307 0.160294 -14.1227 -33.1358 -90.5114 42.6216 -67.0763 10.9019 13.3624 -39.4174 0.420957 0.000575435 0.35866 -1.92219 6.13416 45.787 -85.2806 -25.3808 77.5286 14.2379 -14.5799 45.2224 0.58676 0.000331166 0.0646654 -39.7496 10.29 92.8463 -2.70511 40.2058 -7.53493 -0.000334764 1.29055 0.0108087 2.46746 -6.05501 2.4056 -46.4988 -4.09587 84.445 0.999983 38.4058 -4.89248 -6.45547 -11.2338 1.22679 2.18015 -13.9214 -11.9354 
32.8227 95.3988 65.5447 68.3031 7.36449 0.450157 -70.1915 0 88.8779 83.1139 71.5358 7.00704 7.46587 20.9626 1.07178 -143.482 -3.31631 -170.068 -147.387 33.5876 -171.25 0.118219 -14.2913 -33.2434 -91.743 42.7921 -66.1388 10.2524 12.6577 -39.1659 0.420957 0.000575435 0.35866 -1.95759 6.25686 45.7193 -84.3665 -25.7042 78.8353 14.876 -15.1959 45.3819 0.58676 0.000331166 0.0646654 -38.73 9.84345 92.4081 -2.77549 39.96 -8.43086 -0.242363 1.77698 0.0829965 2.56338 -6.7038 4.1823 -46.419 -4.4819 83.2037 0.946331 37.8109 -4.85236 -6.72159 -10.9858 1.23155 2.20902 -14.6717 -12.3359 
